<svg xmlns="http://www.w3.org/2000/svg" xmlns:xlink="http://www.w3.org/1999/xlink" width="121" zoomAndPan="magnify" viewBox="0 0 90.75 32.999998" height="44" preserveAspectRatio="xMidYMid meet" version="1.2"><defs><clipPath id="b5f8103c82"><path d="M 12.324219 3 L 28 3 L 28 27 L 12.324219 27 Z M 12.324219 3 "/></clipPath></defs><g id="dc8030a569"><g clip-rule="nonzero" clip-path="url(#b5f8103c82)"><path style=" stroke:none;fill-rule:nonzero;fill:#4f39f6;fill-opacity:1;" d="M 12.371094 15.796875 L 27.464844 3.039062 L 21.632812 26.039062 L 21.40625 17.882812 Z M 12.371094 15.796875 "/></g><path style=" stroke:none;fill-rule:nonzero;fill:#4f39f6;fill-opacity:1;" d="M 22.644531 12.980469 L 33.226562 16.144531 L 17.734375 29.367188 L 17.738281 29.371094 Z M 22.644531 12.980469 "/><g style="fill:#4f39f6;fill-opacity:1;"><g transform="translate(37.91586, 22.483514)"><path style="stroke:none" d="M 4.078125 0.1875 C 3.191406 0.1875 2.515625 -0.0507812 2.046875 -0.53125 C 1.585938 -1.007812 1.359375 -1.734375 1.359375 -2.703125 L 1.359375 -13.78125 L 3.828125 -13.78125 L 3.828125 -2.8125 C 3.828125 -2.207031 4.078125 -1.90625 4.578125 -1.90625 C 4.710938 -1.90625 4.863281 -1.929688 5.03125 -1.984375 L 5.15625 -1.9375 L 5.375 -0.046875 C 5.238281 0.0234375 5.054688 0.0820312 4.828125 0.125 C 4.597656 0.164062 4.347656 0.1875 4.078125 0.1875 Z M 4.078125 0.1875 "/></g></g><g style="fill:#4f39f6;fill-opacity:1;"><g transform="translate(43.559644, 22.483514)"><path style="stroke:none" d="M 5.71875 0.1875 C 4.75 0.1875 3.898438 -0.0078125 3.171875 -0.40625 C 2.441406 -0.800781 1.875 -1.378906 1.46875 -2.140625 C 1.070312 -2.898438 0.875 -3.820312 0.875 -4.90625 C 0.875 -5.988281 1.070312 -6.910156 1.46875 -7.671875 C 1.875 -8.441406 2.441406 -9.023438 3.171875 -9.421875 C 3.898438 -9.816406 4.75 -10.015625 5.71875 -10.015625 C 6.675781 -10.015625 7.519531 -9.816406 8.25 -9.421875 C 8.976562 -9.023438 9.539062 -8.441406 9.9375 -7.671875 C 10.34375 -6.910156 10.546875 -5.988281 10.546875 -4.90625 C 10.546875 -3.820312 10.34375 -2.898438 9.9375 -2.140625 C 9.539062 -1.378906 8.976562 -0.800781 8.25 -0.40625 C 7.519531 -0.0078125 6.675781 0.1875 5.71875 0.1875 Z M 5.71875 -1.90625 C 7.238281 -1.90625 8 -2.90625 8 -4.90625 C 8 -5.945312 7.800781 -6.707031 7.40625 -7.1875 C 7.019531 -7.675781 6.457031 -7.921875 5.71875 -7.921875 C 4.1875 -7.921875 3.421875 -6.914062 3.421875 -4.90625 C 3.421875 -2.90625 4.1875 -1.90625 5.71875 -1.90625 Z M 5.71875 -1.90625 "/></g></g><g style="fill:#4f39f6;fill-opacity:1;"><g transform="translate(54.971839, 22.483514)"><path style="stroke:none" d="M 5.71875 0.1875 C 4.75 0.1875 3.898438 -0.0078125 3.171875 -0.40625 C 2.441406 -0.800781 1.875 -1.378906 1.46875 -2.140625 C 1.070312 -2.898438 0.875 -3.820312 0.875 -4.90625 C 0.875 -5.988281 1.070312 -6.910156 1.46875 -7.671875 C 1.875 -8.441406 2.441406 -9.023438 3.171875 -9.421875 C 3.898438 -9.816406 4.75 -10.015625 5.71875 -10.015625 C 6.675781 -10.015625 7.519531 -9.816406 8.25 -9.421875 C 8.976562 -9.023438 9.539062 -8.441406 9.9375 -7.671875 C 10.34375 -6.910156 10.546875 -5.988281 10.546875 -4.90625 C 10.546875 -3.820312 10.34375 -2.898438 9.9375 -2.140625 C 9.539062 -1.378906 8.976562 -0.800781 8.25 -0.40625 C 7.519531 -0.0078125 6.675781 0.1875 5.71875 0.1875 Z M 5.71875 -1.90625 C 7.238281 -1.90625 8 -2.90625 8 -4.90625 C 8 -5.945312 7.800781 -6.707031 7.40625 -7.1875 C 7.019531 -7.675781 6.457031 -7.921875 5.71875 -7.921875 C 4.1875 -7.921875 3.421875 -6.914062 3.421875 -4.90625 C 3.421875 -2.90625 4.1875 -1.90625 5.71875 -1.90625 Z M 5.71875 -1.90625 "/></g></g><g style="fill:#4f39f6;fill-opacity:1;"><g transform="translate(66.384034, 22.483514)"><path style="stroke:none" d="M 1.421875 3.984375 L 1.421875 -9.828125 L 3.890625 -9.828125 L 3.890625 -8.546875 L 4.078125 -8.515625 C 4.367188 -9.015625 4.753906 -9.390625 5.234375 -9.640625 C 5.722656 -9.890625 6.296875 -10.015625 6.953125 -10.015625 C 7.742188 -10.015625 8.429688 -9.828125 9.015625 -9.453125 C 9.609375 -9.078125 10.066406 -8.507812 10.390625 -7.75 C 10.722656 -6.988281 10.890625 -6.039062 10.890625 -4.90625 C 10.890625 -3.78125 10.71875 -2.835938 10.375 -2.078125 C 10.03125 -1.316406 9.546875 -0.75 8.921875 -0.375 C 8.304688 0 7.597656 0.1875 6.796875 0.1875 C 6.179688 0.1875 5.648438 0.0859375 5.203125 -0.109375 C 4.753906 -0.316406 4.378906 -0.640625 4.078125 -1.078125 L 3.890625 -1.046875 L 3.890625 3.984375 Z M 6.109375 -1.90625 C 6.835938 -1.90625 7.390625 -2.144531 7.765625 -2.625 C 8.148438 -3.101562 8.34375 -3.863281 8.34375 -4.90625 C 8.34375 -5.945312 8.148438 -6.707031 7.765625 -7.1875 C 7.390625 -7.675781 6.835938 -7.921875 6.109375 -7.921875 C 5.421875 -7.921875 4.875 -7.671875 4.46875 -7.171875 C 4.0625 -6.671875 3.859375 -5.914062 3.859375 -4.90625 C 3.859375 -3.90625 4.0625 -3.15625 4.46875 -2.65625 C 4.875 -2.15625 5.421875 -1.90625 6.109375 -1.90625 Z M 6.109375 -1.90625 "/></g></g></g></svg>