<svg xmlns="http://www.w3.org/2000/svg" xmlns:xlink="http://www.w3.org/1999/xlink" width="121" zoomAndPan="magnify" viewBox="0 0 90.75 32.999998" height="44" preserveAspectRatio="xMidYMid meet" version="1.2"><defs><clipPath id="b3124bc89b"><path d="M 12.324219 3 L 28 3 L 28 27 L 12.324219 27 Z M 12.324219 3 "/></clipPath></defs><g id="7f8b213a14"><g clip-rule="nonzero" clip-path="url(#b3124bc89b)"><path style=" stroke:none;fill-rule:nonzero;fill:#4f39f6;fill-opacity:1;" d="M 12.371094 15.796875 L 27.464844 3.039062 L 21.632812 26.039062 L 21.40625 17.882812 Z M 12.371094 15.796875 "/></g><path style=" stroke:none;fill-rule:nonzero;fill:#4f39f6;fill-opacity:1;" d="M 22.644531 12.980469 L 33.226562 16.144531 L 17.734375 29.367188 L 17.738281 29.371094 Z M 22.644531 12.980469 "/><g style="fill:#4f39f6;fill-opacity:1;"><g transform="translate(34.614408, 23.605423)"><path style="stroke:none" d="M 4.75 0.21875 C 3.71875 0.21875 2.929688 -0.0546875 2.390625 -0.609375 C 1.847656 -1.171875 1.578125 -2.019531 1.578125 -3.15625 L 1.578125 -16.03125 L 4.453125 -16.03125 L 4.453125 -3.265625 C 4.453125 -2.566406 4.738281 -2.21875 5.3125 -2.21875 C 5.476562 -2.21875 5.65625 -2.242188 5.84375 -2.296875 L 6 -2.265625 L 6.25 -0.046875 C 6.09375 0.0351562 5.878906 0.0976562 5.609375 0.140625 C 5.347656 0.191406 5.0625 0.21875 4.75 0.21875 Z M 4.75 0.21875 "/></g></g><g style="fill:#4f39f6;fill-opacity:1;"><g transform="translate(41.184352, 23.605423)"><path style="stroke:none" d="M 6.640625 0.21875 C 5.523438 0.21875 4.539062 -0.0078125 3.6875 -0.46875 C 2.84375 -0.925781 2.1875 -1.597656 1.71875 -2.484375 C 1.257812 -3.378906 1.03125 -4.457031 1.03125 -5.71875 C 1.03125 -6.96875 1.257812 -8.039062 1.71875 -8.9375 C 2.1875 -9.832031 2.84375 -10.507812 3.6875 -10.96875 C 4.539062 -11.425781 5.523438 -11.65625 6.640625 -11.65625 C 7.765625 -11.65625 8.75 -11.425781 9.59375 -10.96875 C 10.4375 -10.507812 11.09375 -9.832031 11.5625 -8.9375 C 12.039062 -8.039062 12.28125 -6.96875 12.28125 -5.71875 C 12.28125 -4.457031 12.039062 -3.378906 11.5625 -2.484375 C 11.09375 -1.597656 10.4375 -0.925781 9.59375 -0.46875 C 8.75 -0.0078125 7.765625 0.21875 6.640625 0.21875 Z M 6.640625 -2.21875 C 8.421875 -2.21875 9.3125 -3.382812 9.3125 -5.71875 C 9.3125 -6.925781 9.082031 -7.8125 8.625 -8.375 C 8.164062 -8.9375 7.503906 -9.21875 6.640625 -9.21875 C 4.867188 -9.21875 3.984375 -8.050781 3.984375 -5.71875 C 3.984375 -3.382812 4.867188 -2.21875 6.640625 -2.21875 Z M 6.640625 -2.21875 "/></g></g><g style="fill:#4f39f6;fill-opacity:1;"><g transform="translate(54.469317, 23.605423)"><path style="stroke:none" d="M 6.640625 0.21875 C 5.523438 0.21875 4.539062 -0.0078125 3.6875 -0.46875 C 2.84375 -0.925781 2.1875 -1.597656 1.71875 -2.484375 C 1.257812 -3.378906 1.03125 -4.457031 1.03125 -5.71875 C 1.03125 -6.96875 1.257812 -8.039062 1.71875 -8.9375 C 2.1875 -9.832031 2.84375 -10.507812 3.6875 -10.96875 C 4.539062 -11.425781 5.523438 -11.65625 6.640625 -11.65625 C 7.765625 -11.65625 8.75 -11.425781 9.59375 -10.96875 C 10.4375 -10.507812 11.09375 -9.832031 11.5625 -8.9375 C 12.039062 -8.039062 12.28125 -6.96875 12.28125 -5.71875 C 12.28125 -4.457031 12.039062 -3.378906 11.5625 -2.484375 C 11.09375 -1.597656 10.4375 -0.925781 9.59375 -0.46875 C 8.75 -0.0078125 7.765625 0.21875 6.640625 0.21875 Z M 6.640625 -2.21875 C 8.421875 -2.21875 9.3125 -3.382812 9.3125 -5.71875 C 9.3125 -6.925781 9.082031 -7.8125 8.625 -8.375 C 8.164062 -8.9375 7.503906 -9.21875 6.640625 -9.21875 C 4.867188 -9.21875 3.984375 -8.050781 3.984375 -5.71875 C 3.984375 -3.382812 4.867188 -2.21875 6.640625 -2.21875 Z M 6.640625 -2.21875 "/></g></g><g style="fill:#4f39f6;fill-opacity:1;"><g transform="translate(67.754283, 23.605423)"><path style="stroke:none" d="M 1.65625 4.640625 L 1.65625 -11.4375 L 4.515625 -11.4375 L 4.515625 -9.9375 L 4.734375 -9.90625 C 5.078125 -10.476562 5.53125 -10.910156 6.09375 -11.203125 C 6.664062 -11.503906 7.332031 -11.65625 8.09375 -11.65625 C 9.007812 -11.65625 9.8125 -11.4375 10.5 -11 C 11.1875 -10.5625 11.722656 -9.898438 12.109375 -9.015625 C 12.492188 -8.128906 12.6875 -7.03125 12.6875 -5.71875 C 12.6875 -4.40625 12.484375 -3.304688 12.078125 -2.421875 C 11.671875 -1.535156 11.109375 -0.875 10.390625 -0.4375 C 9.671875 0 8.84375 0.21875 7.90625 0.21875 C 7.1875 0.21875 6.566406 0.0976562 6.046875 -0.140625 C 5.535156 -0.378906 5.097656 -0.75 4.734375 -1.25 L 4.515625 -1.21875 L 4.515625 4.640625 Z M 7.109375 -2.21875 C 7.960938 -2.21875 8.609375 -2.5 9.046875 -3.0625 C 9.492188 -3.625 9.71875 -4.507812 9.71875 -5.71875 C 9.71875 -6.925781 9.492188 -7.8125 9.046875 -8.375 C 8.609375 -8.9375 7.960938 -9.21875 7.109375 -9.21875 C 6.304688 -9.21875 5.664062 -8.925781 5.1875 -8.34375 C 4.71875 -7.757812 4.484375 -6.882812 4.484375 -5.71875 C 4.484375 -4.539062 4.71875 -3.660156 5.1875 -3.078125 C 5.664062 -2.503906 6.304688 -2.21875 7.109375 -2.21875 Z M 7.109375 -2.21875 "/></g></g></g></svg>